<!-- icon666.com - MILLIONS vector ICONS FREE --><svg version="1.1" id="Capa_1" xmlns="http://www.w3.org/2000/svg" xmlns:xlink="http://www.w3.org/1999/xlink" x="0px" y="0px" viewBox="0 0 512.003 512.003" style="enable-background:new 0 0 512.003 512.003;" xml:space="preserve"><g><g><path d="M483.777,272.293h-12.694c0.121-1.621,0.244-3.243,0.327-4.871c0.002-0.039,0.002-0.078,0.005-0.117 c0.001-0.018,0.002-0.036,0.002-0.054c0.193-3.762,0.293-7.546,0.293-11.25c0-4.417-0.136-8.858-0.403-13.187 c-0.407-6.843-1.16-13.781-2.238-20.62c-3.282-20.843-9.604-41.023-18.784-59.975c-1.252-2.592-2.644-5.316-4.135-8.095 c-2.803-5.225-5.875-10.413-9.131-15.421c-13.604-20.93-30.584-39.207-50.47-54.324c-0.072-0.055-0.146-0.108-0.221-0.161 c-2.425-1.852-5.049-3.754-7.801-5.655c-10.046-6.95-20.747-13.069-31.807-18.189c-0.078-0.036-0.157-0.071-0.237-0.104 c-28.389-13.119-58.759-19.769-90.273-19.769c-31.512,0-61.884,6.651-90.271,19.768c-0.08,0.034-0.16,0.069-0.239,0.105 c-11.06,5.12-21.761,11.239-31.801,18.187c-2.833,1.956-5.525,3.911-7.98,5.791c-0.01,0.007-0.02,0.015-0.029,0.022 c-0.002,0.001-0.005,0.003-0.007,0.005c-3.767,2.862-7.489,5.89-11.063,8.997c-3.126,2.718-3.457,7.455-0.739,10.581 c2.718,3.127,7.456,3.456,10.581,0.739c2.559-2.225,5.215-4.383,7.905-6.493c35.942,4.825,78.592,7.377,123.645,7.377 c45.077,0,87.738-2.554,123.678-7.381c17.466,13.698,32.451,30.057,44.555,48.679c2.804,4.313,5.451,8.771,7.898,13.265 c-1.495,0.297-3.018,0.596-4.604,0.9c-50.17,9.556-109.482,14.607-171.526,14.607c-62.033,0-121.347-5.052-171.519-14.606 c-1.59-0.305-3.115-0.604-4.612-0.901c2.448-4.496,5.095-8.954,7.899-13.266c4.917-7.564,10.399-14.868,16.297-21.708 c2.704-3.138,2.354-7.873-0.783-10.578c-3.138-2.704-7.873-2.354-10.578,0.783c-6.337,7.351-12.229,15.2-17.512,23.327 c-3.255,5.007-6.327,10.195-9.131,15.421c-1.492,2.78-2.884,5.505-4.132,8.089c-9.183,18.956-15.504,39.137-18.789,59.983 c-1.077,6.85-1.83,13.786-2.236,20.604c-0.269,4.344-0.404,8.785-0.404,13.202c0,3.704,0.1,7.489,0.293,11.245 c0,0.022,0.002,0.043,0.002,0.065c0.002,0.035,0.002,0.069,0.004,0.104c0.083,1.631,0.206,3.255,0.327,4.878H28.223 C12.66,272.293,0,284.953,0,300.516v116.555c0,15.563,12.66,28.223,28.223,28.223h26.055c4.805,0,9.333-1.21,13.297-3.337 c1.062,16.354,14.698,29.337,31.316,29.337h19.719c16.115,0,29.427-12.209,31.187-27.863 c32.343,18.397,68.859,28.071,106.413,28.071c18.276,0,36.437-2.293,53.976-6.814c4.012-1.034,6.425-5.124,5.391-9.135 c-1.033-4.011-5.118-6.424-9.135-5.391c-16.317,4.207-33.217,6.34-50.231,6.34c-33.231,0-65.585-8.136-94.553-23.652 c30.807,2.102,62.512,3.183,94.553,3.183c32.043,0,63.76-1.082,94.58-3.187c-4.996,2.677-10.102,5.141-15.283,7.374 c-3.804,1.639-5.56,6.052-3.92,9.855c1.223,2.837,3.987,4.534,6.892,4.534c0.99,0,1.997-0.197,2.964-0.614 c7.087-3.054,14.042-6.514,20.791-10.333c1.864,15.542,15.122,27.632,31.158,27.632h19.719c16.618,0,30.254-12.983,31.316-29.337 c3.965,2.127,8.492,3.337,13.297,3.337h26.055c15.563,0,28.223-12.66,28.223-28.223V300.516 C512,284.953,499.34,272.293,483.777,272.293z M256.209,90.581c-37.704,0-73.653-1.807-105.252-5.251 c6.719-4.157,13.686-7.927,20.821-11.24c0.079-0.033,0.158-0.068,0.236-0.104c26.465-12.266,54.792-18.485,84.196-18.485 s57.731,6.219,84.196,18.484c0.077,0.036,0.155,0.07,0.234,0.104c7.135,3.313,14.102,7.083,20.823,11.241 C329.87,88.774,293.921,90.581,256.209,90.581z M67.501,417.071c-0.001,7.29-5.933,13.222-13.224,13.222H28.223 c-7.291,0-13.223-5.932-13.223-13.223V300.516c0-7.291,5.932-13.223,13.223-13.223h26.055c7.291,0,13.223,5.932,13.223,13.223 V417.071z M135.001,439.902H135c0,9.038-7.353,16.391-16.391,16.391H98.891c-9.038,0-16.391-7.353-16.391-16.391V277.684 c0-9.038,7.353-16.391,16.391-16.391h19.719c9.038,0,16.391,7.353,16.391,16.391V439.902z M362,416.984 c-34.285,2.675-69.826,4.047-105.79,4.047c-36.119,0-71.801-1.383-106.21-4.076v-30.662h212V416.984z M362,331.293H201 c-4.143,0-7.5,3.357-7.5,7.5s3.357,7.5,7.5,7.5h161v25H150v-25h16.5c4.143,0,7.5-3.357,7.5-7.5s-3.357-7.5-7.5-7.5H150v-44.364 c34.475,2.659,70.151,4.022,106.21,4.022c36.001,0,71.535-1.354,105.79-3.993V331.293z M429.5,439.902 c0,9.038-7.353,16.391-16.391,16.391H393.39c-9.038,0-16.391-7.353-16.391-16.391V277.684c0-9.038,7.353-16.391,16.391-16.391 h19.719c9.038,0,16.391,7.353,16.391,16.391V439.902z M440.905,263.119c-5.258-9.994-15.741-16.828-27.795-16.828h-19.719 c-15.322,0-28.107,11.038-30.842,25.577c-34.395,2.697-70.124,4.081-106.339,4.081c-36.271,0-72.144-1.394-106.764-4.11 c-2.747-14.525-15.525-25.548-30.837-25.548H98.891c-12.027,0-22.49,6.802-27.759,16.758c-1.31-0.195-2.637-0.381-3.938-0.582 c-0.098-0.015-0.197-0.028-0.296-0.039c-3.735-0.574-7.454-1.17-11.126-1.778c-0.036-1.559-0.062-3.114-0.062-4.65 c0-4.109,0.126-8.24,0.376-12.293c0.379-6.353,1.079-12.806,2.082-19.179c2.75-17.453,7.797-34.402,15.009-50.477 c2.759,0.568,5.631,1.139,8.7,1.727c51.09,9.73,111.373,14.873,174.333,14.873c62.97,0,123.253-5.143,174.341-14.874 c3.064-0.587,5.935-1.159,8.693-1.726c7.211,16.073,12.259,33.023,15.008,50.477c1.002,6.363,1.702,12.816,2.083,19.194 c0.249,4.037,0.375,8.168,0.375,12.278c0,1.536-0.026,3.091-0.062,4.65c-3.687,0.61-7.421,1.208-11.172,1.785 c-0.079,0.01-0.159,0.021-0.238,0.032v-0.001C443.799,262.688,442.353,262.904,440.905,263.119z M497,417.07 c0,7.291-5.932,13.223-13.223,13.223h-26.055c-7.291,0-13.223-5.932-13.223-13.223V300.516c0-7.291,5.932-13.223,13.223-13.223 h26.055c7.291,0,13.223,5.932,13.223,13.223V417.07z"></path></g></g></svg>