<!-- icon666.com - MILLIONS vector ICONS FREE --><svg id="Layer_3" viewBox="0 0 64 64" xmlns="http://www.w3.org/2000/svg" data-name="Layer 3"><path d="m9 36h4v6h-4z"></path><path d="m50.067 30.03a14.539 14.539 0 0 1 1.867 0c.363.023.713.085 1.066.138v-2.168h-4v2.168c.353-.053.7-.115 1.067-.138z"></path><path d="m40 6h-18v14h18zm-2 11a1 1 0 0 1 -1 1h-12a1 1 0 0 1 -1-1v-8a1 1 0 0 1 1-1h12a1 1 0 0 1 1 1z"></path><path d="m20 20h-15v26h12v-19a1 1 0 0 1 1-1h26a1 1 0 0 1 1 1v4.5a11.678 11.678 0 0 1 2-.874v-3.626a1 1 0 0 1 1-1h6a1 1 0 0 1 1 1v3.621a11.678 11.678 0 0 1 2 .874v-11.495h-15v1a1 1 0 0 1 -1 1h-20a1 1 0 0 1 -1-1zm-5 23a1 1 0 0 1 -1 1h-6a1 1 0 0 1 -1-1v-16a1 1 0 0 1 1-1h6a1 1 0 0 1 1 1z"></path><path d="m9 28h4v6h-4z"></path><path d="m31 14a1 1 0 0 1 -.555-.168l-4.445-2.964v5.132h10v-5.132l-4.445 2.963a1 1 0 0 1 -.555.169z"></path><path d="m42 12h17v6h-17z"></path><path d="m33.697 10h-5.394l2.697 1.797z"></path><path d="m30 46v-18h-11v18zm-4-10h2v4h-2z"></path><path d="m41.062 48h-38.062v2h39.586l-1.1-1.387c-.157-.198-.286-.413-.424-.613z"></path><path d="m3 12h17v6h-17z"></path><circle cx="51" cy="42" r="6"></circle><path d="m60.179 37.75a9.642 9.642 0 0 0 -8.373-5.724c-.267-.017-.535-.026-.806-.026s-.539.009-.8.026a9.641 9.641 0 0 0 -8.374 5.724 9.217 9.217 0 0 0 1.231 9.62l7.943 10.021 7.948-10.021a9.217 9.217 0 0 0 1.231-9.62zm-9.179 12.25a8 8 0 1 1 8-8 8.009 8.009 0 0 1 -8 8z"></path><path d="m43 32.878v-4.878h-11v18h7.918a11.151 11.151 0 0 1 .075-9.063 11.578 11.578 0 0 1 3.007-4.059zm-7 7.122h-2v-4h2z"></path></svg>